<?xml version="1.0" encoding="UTF-8" standalone="no"?><svg xmlns="http://www.w3.org/2000/svg" xmlns:xlink="http://www.w3.org/1999/xlink" contentScriptType="application/ecmascript" contentStyleType="text/css" height="182px" preserveAspectRatio="none" style="width:272px;height:182px;background:#FFFFFF;" version="1.1" viewBox="0 0 272 182" width="272px" zoomAndPan="magnify"><defs><filter height="300%" id="fzzzvgrc1ozg4" width="300%" x="-1" y="-1"><feGaussianBlur result="blurOut" stdDeviation="2.0"/><feColorMatrix in="blurOut" result="blurOut2" type="matrix" values="0 0 0 0 0 0 0 0 0 0 0 0 0 0 0 0 0 0 .4 0"/><feOffset dx="4.0" dy="4.0" in="blurOut2" result="blurOut3"/><feBlend in="SourceGraphic" in2="blurOut3" mode="normal"/></filter></defs><g><!--MD5=[9dd75fd92da113d30380b27734fd2f01]
cluster Service--><polygon fill="#FFFFFF" filter="url(#fzzzvgrc1ozg4)" points="16,78,81,78,88,100.2969,255,100.2969,255,175,16,175,16,78" style="stroke:#000000;stroke-width:1.5;"/><line style="stroke:#000000;stroke-width:1.5;" x1="16" x2="88" y1="100.2969" y2="100.2969"/><text fill="#000000" font-family="sans-serif" font-size="14" font-weight="bold" lengthAdjust="spacing" textLength="59" x="20" y="92.9951">Service</text><!--MD5=[74134efe28adec49b9a7b7a2aa5f3dec]
entity caching--><rect fill="#FEFECE" filter="url(#fzzzvgrc1ozg4)" height="46.2969" style="stroke:#A80036;stroke-width:1.5;" width="94" x="145" y="113"/><rect fill="#FEFECE" height="10" style="stroke:#A80036;stroke-width:1.5;" width="15" x="219" y="118"/><rect fill="#FEFECE" height="2" style="stroke:#A80036;stroke-width:1.5;" width="4" x="217" y="120"/><rect fill="#FEFECE" height="2" style="stroke:#A80036;stroke-width:1.5;" width="4" x="217" y="124"/><text fill="#000000" font-family="sans-serif" font-size="14" lengthAdjust="spacing" textLength="54" x="160" y="145.9951">caching</text><!--MD5=[96f7e1299d4a43069e6ed32352fcac20]
entity HTTP--><rect fill="#FEFECE" filter="url(#fzzzvgrc1ozg4)" height="46.2969" style="stroke:#A80036;stroke-width:1.5;" width="77" x="32.5" y="113"/><rect fill="#FEFECE" height="10" style="stroke:#A80036;stroke-width:1.5;" width="15" x="89.5" y="118"/><rect fill="#FEFECE" height="2" style="stroke:#A80036;stroke-width:1.5;" width="4" x="87.5" y="120"/><rect fill="#FEFECE" height="2" style="stroke:#A80036;stroke-width:1.5;" width="4" x="87.5" y="124"/><text fill="#000000" font-family="sans-serif" font-size="14" lengthAdjust="spacing" textLength="37" x="47.5" y="145.9951">HTTP</text><!--MD5=[f58b2b83a30fb4f4bc139d20364830ab]
entity cradle--><rect fill="#FEFECE" filter="url(#fzzzvgrc1ozg4)" height="46.2969" style="stroke:#A80036;stroke-width:1.5;" width="149" x="56.5" y="7"/><rect fill="#FEFECE" height="10" style="stroke:#A80036;stroke-width:1.5;" width="15" x="185.5" y="12"/><rect fill="#FEFECE" height="2" style="stroke:#A80036;stroke-width:1.5;" width="4" x="183.5" y="14"/><rect fill="#FEFECE" height="2" style="stroke:#A80036;stroke-width:1.5;" width="4" x="183.5" y="18"/><text fill="#000000" font-family="sans-serif" font-size="14" lengthAdjust="spacing" textLength="109" x="71.5" y="39.9951">Rest of CRADLE</text><!--MD5=[1a054f1deeb5c9fa85f69cca04fb54f2]
link cradle to HTTP--><path d="M118.28,53.06 C108.97,69.19 96.3,91.15 86.41,108.28 " fill="none" id="cradle-to-HTTP" style="stroke:#A80036;stroke-width:1.0;"/><polygon fill="#A80036" points="83.71,112.98,91.675,107.187,86.2107,108.6503,84.7474,103.1859,83.71,112.98" style="stroke:#A80036;stroke-width:1.0;"/><!--MD5=[08c73674dd5df86aaa20e30c13ecfae8]
link cradle to caching--><path d="M143.94,53.06 C153.4,69.19 166.28,91.15 176.33,108.28 " fill="none" id="cradle-to-caching" style="stroke:#A80036;stroke-width:1.0;"/><polygon fill="#A80036" points="179.08,112.98,177.9801,103.1927,176.5518,108.6663,171.0782,107.2379,179.08,112.98" style="stroke:#A80036;stroke-width:1.0;"/><!--MD5=[22c1270ec3f93d0daad11756421d44da]
@startuml
component "Rest of CRADLE" as cradle

package "Service" {
    [caching]
    [HTTP]
}

cradle -down-> HTTP
cradle -down-> caching
@enduml

PlantUML version 1.2022.0(Tue Jan 11 17:16:42 CET 2022)
(GPL source distribution)
Java Runtime: OpenJDK Runtime Environment
JVM: OpenJDK 64-Bit Server VM
Default Encoding: UTF-8
Language: en
Country: null
--></g></svg>