<?xml version="1.0" encoding="UTF-8" standalone="no"?><svg xmlns="http://www.w3.org/2000/svg" xmlns:xlink="http://www.w3.org/1999/xlink" contentScriptType="application/ecmascript" contentStyleType="text/css" height="406px" preserveAspectRatio="none" style="width:330px;height:406px;background:#FFFFFF;" version="1.1" viewBox="0 0 330 406" width="330px" zoomAndPan="magnify"><defs><filter height="300%" id="f148mvuyd0xcpc" width="300%" x="-1" y="-1"><feGaussianBlur result="blurOut" stdDeviation="2.0"/><feColorMatrix in="blurOut" result="blurOut2" type="matrix" values="0 0 0 0 0 0 0 0 0 0 0 0 0 0 0 0 0 0 .4 0"/><feOffset dx="4.0" dy="4.0" in="blurOut2" result="blurOut3"/><feBlend in="SourceGraphic" in2="blurOut3" mode="normal"/></filter></defs><g><!--MD5=[267634f2ef7a62fcbbb6231fa9e20bf3]
cluster inner--><polygon fill="#FFFFFF" filter="url(#f148mvuyd0xcpc)" points="149.5,184,262.5,184,269.5,206.2969,275.5,206.2969,275.5,399,149.5,399,149.5,184" style="stroke:#000000;stroke-width:1.5;"/><line style="stroke:#000000;stroke-width:1.5;" x1="149.5" x2="269.5" y1="206.2969" y2="206.2969"/><text fill="#000000" font-family="sans-serif" font-size="14" font-weight="bold" lengthAdjust="spacing" textLength="107" x="153.5" y="198.9951">Inner CRADLE</text><!--MD5=[e2307af040e3f87d22824e7603ca28ec]
entity api--><ellipse cx="212.5" cy="248" fill="#FEFECE" filter="url(#f148mvuyd0xcpc)" rx="8" ry="8" style="stroke:#A80036;stroke-width:1.5;"/><text fill="#000000" font-family="sans-serif" font-size="14" lengthAdjust="spacing" textLength="79" x="173" y="277.9951">caching API</text><!--MD5=[74134efe28adec49b9a7b7a2aa5f3dec]
entity caching--><rect fill="#FEFECE" filter="url(#f148mvuyd0xcpc)" height="46.2969" style="stroke:#A80036;stroke-width:1.5;" width="94" x="165.5" y="337"/><rect fill="#FEFECE" height="10" style="stroke:#A80036;stroke-width:1.5;" width="15" x="239.5" y="342"/><rect fill="#FEFECE" height="2" style="stroke:#A80036;stroke-width:1.5;" width="4" x="237.5" y="344"/><rect fill="#FEFECE" height="2" style="stroke:#A80036;stroke-width:1.5;" width="4" x="237.5" y="348"/><text fill="#000000" font-family="sans-serif" font-size="14" lengthAdjust="spacing" textLength="54" x="180.5" y="369.9951">caching</text><!--MD5=[f58b2b83a30fb4f4bc139d20364830ab]
entity cradle--><rect fill="#FEFECE" filter="url(#f148mvuyd0xcpc)" height="46.2969" style="stroke:#A80036;stroke-width:1.5;" width="149" x="25" y="7"/><rect fill="#FEFECE" height="10" style="stroke:#A80036;stroke-width:1.5;" width="15" x="154" y="12"/><rect fill="#FEFECE" height="2" style="stroke:#A80036;stroke-width:1.5;" width="4" x="152" y="14"/><rect fill="#FEFECE" height="2" style="stroke:#A80036;stroke-width:1.5;" width="4" x="152" y="18"/><text fill="#000000" font-family="sans-serif" font-size="14" lengthAdjust="spacing" textLength="109" x="40" y="39.9951">Rest of CRADLE</text><!--MD5=[6b1573f1f7d0fb63e4d0f2036f2d8387]
entity clientx--><rect fill="#FEFECE" filter="url(#f148mvuyd0xcpc)" height="46.2969" style="stroke:#A80036;stroke-width:1.5;" width="92" x="224.5" y="113"/><rect fill="#FEFECE" height="10" style="stroke:#A80036;stroke-width:1.5;" width="15" x="296.5" y="118"/><rect fill="#FEFECE" height="2" style="stroke:#A80036;stroke-width:1.5;" width="4" x="294.5" y="120"/><rect fill="#FEFECE" height="2" style="stroke:#A80036;stroke-width:1.5;" width="4" x="294.5" y="124"/><text fill="#000000" font-family="sans-serif" font-size="14" lengthAdjust="spacing" textLength="52" x="239.5" y="145.9951">Client X</text><!--MD5=[96f7e1299d4a43069e6ed32352fcac20]
entity HTTP--><rect fill="#FEFECE" filter="url(#f148mvuyd0xcpc)" height="46.2969" style="stroke:#A80036;stroke-width:1.5;" width="77" x="7" y="113"/><rect fill="#FEFECE" height="10" style="stroke:#A80036;stroke-width:1.5;" width="15" x="64" y="118"/><rect fill="#FEFECE" height="2" style="stroke:#A80036;stroke-width:1.5;" width="4" x="62" y="120"/><rect fill="#FEFECE" height="2" style="stroke:#A80036;stroke-width:1.5;" width="4" x="62" y="124"/><text fill="#000000" font-family="sans-serif" font-size="14" lengthAdjust="spacing" textLength="37" x="22" y="145.9951">HTTP</text><!--MD5=[0a225acc936a0bdda1a1efd4bb062b4d]
entity glue--><rect fill="#FEFECE" filter="url(#f148mvuyd0xcpc)" height="46.2969" style="stroke:#A80036;stroke-width:1.5;" width="70" x="119.5" y="113"/><rect fill="#FEFECE" height="10" style="stroke:#A80036;stroke-width:1.5;" width="15" x="169.5" y="118"/><rect fill="#FEFECE" height="2" style="stroke:#A80036;stroke-width:1.5;" width="4" x="167.5" y="120"/><rect fill="#FEFECE" height="2" style="stroke:#A80036;stroke-width:1.5;" width="4" x="167.5" y="124"/><text fill="#000000" font-family="sans-serif" font-size="14" lengthAdjust="spacing" textLength="30" x="134.5" y="145.9951">glue</text><!--MD5=[1a054f1deeb5c9fa85f69cca04fb54f2]
link cradle to HTTP--><path d="M88.05,53.06 C79.67,69.19 68.27,91.15 59.37,108.28 " fill="none" id="cradle-to-HTTP" style="stroke:#A80036;stroke-width:1.0;"/><polygon fill="#A80036" points="56.94,112.98,64.6535,106.8561,59.2558,108.5486,57.5633,103.1509,56.94,112.98" style="stroke:#A80036;stroke-width:1.0;"/><!--MD5=[09e878a546b57fff6d38a21d93317dbe]
link cradle to glue--><path d="M111.16,53.06 C119.7,69.19 131.31,91.15 140.37,108.28 " fill="none" id="cradle-to-glue" style="stroke:#A80036;stroke-width:1.0;"/><polygon fill="#A80036" points="142.85,112.98,142.1888,103.1534,140.5171,108.5576,135.1129,106.8859,142.85,112.98" style="stroke:#A80036;stroke-width:1.0;"/><!--MD5=[60267dc08218b3c8f1f68a1421836000]
link clientx to api--><path d="M258.76,159.26 C246.9,181.75 228.98,215.74 219.3,234.11 " fill="none" id="clientx-to-api" style="stroke:#A80036;stroke-width:1.0;"/><polygon fill="#A80036" points="216.79,238.86,224.5271,232.7659,219.1229,234.4376,217.4512,229.0334,216.79,238.86" style="stroke:#A80036;stroke-width:1.0;"/><!--MD5=[491825ef7bc8fffe7e75ead1973caa04]
link glue to api--><path d="M166.24,159.26 C178.1,181.75 196.02,215.74 205.7,234.11 " fill="none" id="glue-to-api" style="stroke:#A80036;stroke-width:1.0;"/><polygon fill="#A80036" points="208.21,238.86,207.5488,229.0334,205.8771,234.4376,200.4729,232.7659,208.21,238.86" style="stroke:#A80036;stroke-width:1.0;"/><!--MD5=[97643b2b7e09ed3e71b8ce1232838da7]
link api to caching--><path d="M212.5,257.27 C212.5,272.85 212.5,307.18 212.5,331.65 " fill="none" id="api-to-caching" style="stroke:#A80036;stroke-width:1.0;"/><polygon fill="#A80036" points="212.5,336.71,216.5,327.71,212.5,331.71,208.5,327.71,212.5,336.71" style="stroke:#A80036;stroke-width:1.0;"/><!--MD5=[34c643f268b1f819c99807ff36833e46]
@startuml
component "Rest of CRADLE" as cradle

component "Client X" as clientx

component "HTTP"

package "Inner CRADLE" as inner {
    interface "caching API" as api
    [caching]
}

component "glue"

cradle -down-> HTTP
cradle -down-> glue
clientx -down-> api
glue -down-> api
api -down-> caching
@enduml

PlantUML version 1.2022.0(Tue Jan 11 17:16:42 CET 2022)
(GPL source distribution)
Java Runtime: OpenJDK Runtime Environment
JVM: OpenJDK 64-Bit Server VM
Default Encoding: UTF-8
Language: en
Country: null
--></g></svg>